<svg xmlns="http://www.w3.org/2000/svg" width="24.34" height="20.656" viewBox="0 0 24.34 20.656">
  <metadata><?xpacket begin="﻿" id="W5M0MpCehiHzreSzNTczkc9d"?>
<x:xmpmeta xmlns:x="adobe:ns:meta/" x:xmptk="Adobe XMP Core 5.6-c140 79.160451, 2017/05/06-01:08:21        ">
   <rdf:RDF xmlns:rdf="http://www.w3.org/1999/02/22-rdf-syntax-ns#">
      <rdf:Description rdf:about=""/>
   </rdf:RDF>
</x:xmpmeta>
                                                                                                    
                                                                                                    
                                                                                                    
                                                                                                    
                                                                                                    
                                                                                                    
                                                                                                    
                                                                                                    
                                                                                                    
                                                                                                    
                                                                                                    
                                                                                                    
                                                                                                    
                                                                                                    
                                                                                                    
                                                                                                    
                                                                                                    
                                                                                                    
                                                                                                    
                                                                                                    
                           
<?xpacket end="w"?></metadata>
<defs>
    <style>
      .cls-1 {
        fill: #fff;
        fill-rule: evenodd;
      }
    </style>
  </defs>
  <path id="Forma_1" data-name="Forma 1" class="cls-1" d="M1520.1,188.6l-9.92-9.921a2.291,2.291,0,0,0-3.24,0l-0.39.393-0.23-.224a2.291,2.291,0,0,0-3.24,0l-1.2,1.2h-2.79a0.782,0.782,0,0,0-.78.783v2.789l-1.21,1.2a2.3,2.3,0,0,0,0,3.24l9.92,9.921a2.3,2.3,0,0,0,3.25,0l0.39-.394,0.22,0.225a2.291,2.291,0,0,0,1.62.671,2.257,2.257,0,0,0,1.62-.671l5.98-5.978A2.281,2.281,0,0,0,1520.1,188.6Zm-11.45,8.492a0.731,0.731,0,0,1-.52-0.212l-9.92-9.92a0.733,0.733,0,0,1,0-1.027l1.43-1.433a0.77,0.77,0,0,0,.23-0.553v-2.33h2.33a0.8,0.8,0,0,0,.56-0.229l1.43-1.433a0.729,0.729,0,0,1,1.03,0l0.77,0.777h0l9.15,9.142a0.733,0.733,0,0,1,0,1.027l-5.98,5.978A0.725,0.725,0,0,1,1508.65,197.092Zm10.35-6.359-5.98,5.978a0.729,0.729,0,0,1-1.03,0l-0.22-.225,4.47-4.477a2.27,2.27,0,0,0,0-3.24l-8.59-8.59,0.4-.393a0.719,0.719,0,0,1,1.02,0l9.93,9.921A0.732,0.732,0,0,1,1519,190.733Zm-14.75-8.77L1500.21,186a0.775,0.775,0,0,0,0,1.107,0.775,0.775,0,0,0,1.1,0l4.04-4.038A0.78,0.78,0,0,0,1504.25,181.963Z" transform="translate(-1496.44 -178)"/>
</svg>
