<svg xmlns="http://www.w3.org/2000/svg" width="20.062" height="20.16" viewBox="0 0 20.062 20.16">
  <metadata><?xpacket begin="﻿" id="W5M0MpCehiHzreSzNTczkc9d"?>
<x:xmpmeta xmlns:x="adobe:ns:meta/" x:xmptk="Adobe XMP Core 5.6-c140 79.160451, 2017/05/06-01:08:21        ">
   <rdf:RDF xmlns:rdf="http://www.w3.org/1999/02/22-rdf-syntax-ns#">
      <rdf:Description rdf:about=""/>
   </rdf:RDF>
</x:xmpmeta>
                                                                                                    
                                                                                                    
                                                                                                    
                                                                                                    
                                                                                                    
                                                                                                    
                                                                                                    
                                                                                                    
                                                                                                    
                                                                                                    
                                                                                                    
                                                                                                    
                                                                                                    
                                                                                                    
                                                                                                    
                                                                                                    
                                                                                                    
                                                                                                    
                                                                                                    
                                                                                                    
                           
<?xpacket end="w"?></metadata>
<defs>
    <style>
      .cls-1 {
        fill: #fff;
        fill-rule: evenodd;
      }
    </style>
  </defs>
  <path id="Kształt_13" data-name="Kształt 13" class="cls-1" d="M463.512,4140.16l-0.167-.35-0.282-.22c-0.371-.29-2.241.02-2.75-0.44a2.9,2.9,0,0,1-.516-1.72,4.891,4.891,0,0,0-.572-2.16,7.034,7.034,0,0,0-4.913-3.48H449.86a6.385,6.385,0,0,0-6.359,6.37v7.43a6.374,6.374,0,0,0,6.359,6.35h7.312a6.39,6.39,0,0,0,6.361-6.35l0.041-5.15Zm-13.57-3.16h3.526a1.213,1.213,0,0,1,1.219,1.21,1.228,1.228,0,0,1-1.219,1.22h-3.526a1.227,1.227,0,0,1-1.218-1.22A1.212,1.212,0,0,1,449.942,4137Zm7.168,9.71h-7.168a1.215,1.215,0,1,1,0-2.43h7.168A1.215,1.215,0,0,1,457.11,4146.71Z" transform="translate(-443.5 -4131.78)"/>
</svg>
