<svg xmlns="http://www.w3.org/2000/svg" width="37.625" height="44.72" viewBox="0 0 37.625 44.72">
  <metadata><?xpacket begin="﻿" id="W5M0MpCehiHzreSzNTczkc9d"?>
<x:xmpmeta xmlns:x="adobe:ns:meta/" x:xmptk="Adobe XMP Core 5.6-c140 79.160451, 2017/05/06-01:08:21        ">
   <rdf:RDF xmlns:rdf="http://www.w3.org/1999/02/22-rdf-syntax-ns#">
      <rdf:Description rdf:about=""/>
   </rdf:RDF>
</x:xmpmeta>
                                                                                                    
                                                                                                    
                                                                                                    
                                                                                                    
                                                                                                    
                                                                                                    
                                                                                                    
                                                                                                    
                                                                                                    
                                                                                                    
                                                                                                    
                                                                                                    
                                                                                                    
                                                                                                    
                                                                                                    
                                                                                                    
                                                                                                    
                                                                                                    
                                                                                                    
                                                                                                    
                           
<?xpacket end="w"?></metadata>
<defs>
    <style>
      .cls-1 {
        fill: #e42c35;
        fill-rule: evenodd;
      }
    </style>
  </defs>
  <path id="Forma_1" data-name="Forma 1" class="cls-1" d="M499.559,2470.05c-0.023-1.21-.044-2.35-0.044-3.45a1.567,1.567,0,0,0-1.567-1.57c-6.7,0-11.8-1.92-16.047-6.06a1.569,1.569,0,0,0-2.184,0c-4.25,4.14-9.348,6.06-16.045,6.06a1.567,1.567,0,0,0-1.567,1.57c0,1.1-.021,2.24-0.044,3.45-0.215,11.24-.509,26.63,18.235,33.12a1.507,1.507,0,0,0,1.026,0C500.068,2496.68,499.774,2481.28,499.559,2470.05Zm-18.75,29.98c-16.076-5.84-15.832-18.63-15.617-29.92,0.013-.68.026-1.34,0.035-1.98a24.184,24.184,0,0,0,15.582-5.91,24.19,24.19,0,0,0,15.585,5.91c0.008,0.64.021,1.3,0.034,1.98C496.643,2481.4,496.886,2494.19,480.809,2500.03Zm5.393-24.57-7.559,7.55-3.225-3.22A1.564,1.564,0,0,0,473.2,2482l4.333,4.33a1.563,1.563,0,0,0,2.215,0l8.666-8.66A1.564,1.564,0,0,0,486.2,2475.46Z" transform="translate(-462 -2458.53)"/>
</svg>
