<svg xmlns="http://www.w3.org/2000/svg" width="20" height="21.06" viewBox="0 0 20 21.06">
  <metadata><?xpacket begin="﻿" id="W5M0MpCehiHzreSzNTczkc9d"?>
<x:xmpmeta xmlns:x="adobe:ns:meta/" x:xmptk="Adobe XMP Core 5.6-c140 79.160451, 2017/05/06-01:08:21        ">
   <rdf:RDF xmlns:rdf="http://www.w3.org/1999/02/22-rdf-syntax-ns#">
      <rdf:Description rdf:about=""/>
   </rdf:RDF>
</x:xmpmeta>
                                                                                                    
                                                                                                    
                                                                                                    
                                                                                                    
                                                                                                    
                                                                                                    
                                                                                                    
                                                                                                    
                                                                                                    
                                                                                                    
                                                                                                    
                                                                                                    
                                                                                                    
                                                                                                    
                                                                                                    
                                                                                                    
                                                                                                    
                                                                                                    
                                                                                                    
                                                                                                    
                           
<?xpacket end="w"?></metadata>
<defs>
    <style>
      .cls-1 {
        fill: #fff;
        fill-rule: evenodd;
      }
    </style>
  </defs>
  <path id="Forma_1" data-name="Forma 1" class="cls-1" d="M315.53,1623.55a0.869,0.869,0,1,0,1.737,0v-8.01h0.89v8.01a0.869,0.869,0,1,0,1.737,0V1609.9h0.424v4.92a0.76,0.76,0,0,0,.317.68,0.566,0.566,0,0,0,.657,0,0.743,0.743,0,0,0,.339-0.68v-5.3a1.6,1.6,0,0,0-.572-1.31,2.453,2.453,0,0,0-1.589-.47H316a2.688,2.688,0,0,0-1.589.43,1.48,1.48,0,0,0-.614,1.31v5.64a0.573,0.573,0,0,0,.339.55,0.7,0.7,0,0,0,.657,0,0.579,0.579,0,0,0,.317-0.55v-5.22h0.424v13.65h0Zm17.329-6.48-2.542-7.04a0.111,0.111,0,0,1-.043-0.08,0.187,0.187,0,0,1,.212-0.21,0.173,0.173,0,0,1,.169.16l1.737,4.54a0.918,0.918,0,0,0,.933.47,0.416,0.416,0,0,0,.36-0.39,2.444,2.444,0,0,0,.106-0.5l-1.78-4.37a1.973,1.973,0,0,0-.762-1.36,2.454,2.454,0,0,0-1.568-.55h-2.246a2.4,2.4,0,0,0-1.588.58,2.155,2.155,0,0,0-.827,1.33l-1.652,4.41a0.6,0.6,0,0,0,.043.48,0.43,0.43,0,0,0,.381.37,0.846,0.846,0,0,0,.932-0.43l1.695-4.58a0.164,0.164,0,0,1,.169-0.12,0.148,0.148,0,0,1,.17.17v0.04l-2.5,7.08v0.55a0.639,0.639,0,0,0,.212.29,0.6,0.6,0,0,0,.3.22h1.61v5.46a0.792,0.792,0,0,0,.276.6,0.876,0.876,0,0,0,.614.25,0.805,0.805,0,0,0,.593-0.25,0.82,0.82,0,0,0,.254-0.6v-5.68a0.328,0.328,0,0,1,.233-0.06,3.3,3.3,0,0,1,.445,0,0.281,0.281,0,0,1,.212.06v5.64a0.863,0.863,0,0,0,.254.61,0.814,0.814,0,0,0,1.229,0,0.863,0.863,0,0,0,.254-0.61v-5.42h1.653a0.438,0.438,0,0,0,.3-0.22,0.671,0.671,0,0,0,.17-0.29v-0.55Zm-16.99-11.89a1.8,1.8,0,1,0,3.6-.02,1.7,1.7,0,0,0-.529-1.25,1.8,1.8,0,0,0-3.072,1.27h0Zm10.846,0a1.81,1.81,0,1,0,.53-1.27A1.734,1.734,0,0,0,326.715,1605.18Z" transform="translate(-313.781 -1603.38)"/>
</svg>
