<svg xmlns="http://www.w3.org/2000/svg" width="20.156" height="20.16" viewBox="0 0 20.156 20.16">
  <metadata><?xpacket begin="﻿" id="W5M0MpCehiHzreSzNTczkc9d"?>
<x:xmpmeta xmlns:x="adobe:ns:meta/" x:xmptk="Adobe XMP Core 5.6-c140 79.160451, 2017/05/06-01:08:21        ">
   <rdf:RDF xmlns:rdf="http://www.w3.org/1999/02/22-rdf-syntax-ns#">
      <rdf:Description rdf:about=""/>
   </rdf:RDF>
</x:xmpmeta>
                                                                                                    
                                                                                                    
                                                                                                    
                                                                                                    
                                                                                                    
                                                                                                    
                                                                                                    
                                                                                                    
                                                                                                    
                                                                                                    
                                                                                                    
                                                                                                    
                                                                                                    
                                                                                                    
                                                                                                    
                                                                                                    
                                                                                                    
                                                                                                    
                                                                                                    
                                                                                                    
                           
<?xpacket end="w"?></metadata>
<defs>
    <style>
      .cls-1 {
        fill: #fff;
        fill-rule: evenodd;
      }
    </style>
  </defs>
  <path id="Kształt_12" data-name="Kształt 12" class="cls-1" d="M415.889,4131.79H403.53a3.9,3.9,0,0,0-3.894,3.9v12.36a3.893,3.893,0,0,0,3.894,3.89h12.359a3.893,3.893,0,0,0,3.894-3.89v-12.36A3.9,3.9,0,0,0,415.889,4131.79Zm1.117,2.33,0.446-.01v3.42l-3.4.01-0.011-3.41Zm-10.171,5.68a3.545,3.545,0,1,1-.671,2.07A3.55,3.55,0,0,1,406.835,4139.8Zm10.985,8.25a1.935,1.935,0,0,1-1.931,1.93H403.53a1.935,1.935,0,0,1-1.931-1.93v-8.25h3.008a5.509,5.509,0,1,0,10.2,0h3.008v8.25Z" transform="translate(-399.625 -4131.78)"/>
</svg>
