<svg xmlns="http://www.w3.org/2000/svg" width="14.06" height="13.281" viewBox="0 0 14.06 13.281">
  <metadata><?xpacket begin="﻿" id="W5M0MpCehiHzreSzNTczkc9d"?>
<x:xmpmeta xmlns:x="adobe:ns:meta/" x:xmptk="Adobe XMP Core 5.6-c140 79.160451, 2017/05/06-01:08:21        ">
   <rdf:RDF xmlns:rdf="http://www.w3.org/1999/02/22-rdf-syntax-ns#">
      <rdf:Description rdf:about=""/>
   </rdf:RDF>
</x:xmpmeta>
                                                                                                    
                                                                                                    
                                                                                                    
                                                                                                    
                                                                                                    
                                                                                                    
                                                                                                    
                                                                                                    
                                                                                                    
                                                                                                    
                                                                                                    
                                                                                                    
                                                                                                    
                                                                                                    
                                                                                                    
                                                                                                    
                                                                                                    
                                                                                                    
                                                                                                    
                                                                                                    
                           
<?xpacket end="w"?></metadata>
<defs>
    <style>
      .cls-1 {
        fill: #e42c35;
        fill-rule: evenodd;
      }
    </style>
  </defs>
  <path id="Forma_1" data-name="Forma 1" class="cls-1" d="M1148.99,38.188h12.94a0.594,0.594,0,0,0,.45-0.193,0.479,0.479,0,0,0,.11-0.381,7.1,7.1,0,0,0-3.74-5.384,4.642,4.642,0,0,1-6.57,0,7.136,7.136,0,0,0-3.75,5.384,0.525,0.525,0,0,0,.12.381A0.589,0.589,0,0,0,1148.99,38.188Zm3.56-6.469a3.015,3.015,0,0,0,.23.228,4,4,0,0,0,5.36,0c0.08-.073.16-0.148,0.24-0.228s0.15-.16.22-0.245a4.03,4.03,0,1,0-7.17-2.526,4,4,0,0,0,.9,2.526A3.277,3.277,0,0,0,1152.55,31.719Z" transform="translate(-1148.44 -24.906)"/>
</svg>
