<svg xmlns="http://www.w3.org/2000/svg" width="20.843" height="20.75" viewBox="0 0 20.843 20.75">
  <metadata><?xpacket begin="﻿" id="W5M0MpCehiHzreSzNTczkc9d"?>
<x:xmpmeta xmlns:x="adobe:ns:meta/" x:xmptk="Adobe XMP Core 5.6-c140 79.160451, 2017/05/06-01:08:21        ">
   <rdf:RDF xmlns:rdf="http://www.w3.org/1999/02/22-rdf-syntax-ns#">
      <rdf:Description rdf:about=""/>
   </rdf:RDF>
</x:xmpmeta>
                                                                                                    
                                                                                                    
                                                                                                    
                                                                                                    
                                                                                                    
                                                                                                    
                                                                                                    
                                                                                                    
                                                                                                    
                                                                                                    
                                                                                                    
                                                                                                    
                                                                                                    
                                                                                                    
                                                                                                    
                                                                                                    
                                                                                                    
                                                                                                    
                                                                                                    
                                                                                                    
                           
<?xpacket end="w"?></metadata>
<defs>
    <style>
      .cls-1 {
        fill: #fff;
        fill-rule: evenodd;
      }
    </style>
  </defs>
  <path id="Forma_1" data-name="Forma 1" class="cls-1" d="M364.612,1618.6a0.377,0.377,0,0,0,.3-0.05,0.274,0.274,0,0,0,.127-0.25v-1.53a0.771,0.771,0,0,0-.381-0.67l-7.925-4.71a0.707,0.707,0,0,1-.381-0.67v-5.3a1.93,1.93,0,0,0-.169-0.8,1.818,1.818,0,0,0-1.314-1.32,1.119,1.119,0,0,0-.254-0.04,1.854,1.854,0,0,0-.3.04,0.265,0.265,0,0,0-.106.03,0.637,0.637,0,0,0-.148.06,1.159,1.159,0,0,0-.551.38,2.818,2.818,0,0,0-.381.55l-0.127.3a2.484,2.484,0,0,0-.128.8v5.3a0.707,0.707,0,0,1-.381.67l-7.924,4.71a0.772,0.772,0,0,0-.382.67v1.53a0.274,0.274,0,0,0,.128.25,0.374,0.374,0,0,0,.3.05l7.84-2.55a0.264,0.264,0,0,1,.3.03,0.334,0.334,0,0,1,.127.27v4.11a0.85,0.85,0,0,1-.338.72l-1.06.76a0.848,0.848,0,0,0-.339.72v1.02a0.274,0.274,0,0,0,.127.25,0.377,0.377,0,0,0,.3.05l2.627-.77a1.525,1.525,0,0,1,.847,0l2.628,0.77a0.374,0.374,0,0,0,.3-0.05,0.274,0.274,0,0,0,.128-0.25v-1.02a0.848,0.848,0,0,0-.339-0.72l-1.06-.76a0.848,0.848,0,0,1-.339-0.72v-4.11a0.344,0.344,0,0,1,.127-0.3,0.311,0.311,0,0,1,.3,0Z" transform="translate(-344.188 -1603.25)"/>
</svg>
