<svg xmlns="http://www.w3.org/2000/svg" width="24.82" height="20.12" viewBox="0 0 24.82 20.12">
  <metadata><?xpacket begin="﻿" id="W5M0MpCehiHzreSzNTczkc9d"?>
<x:xmpmeta xmlns:x="adobe:ns:meta/" x:xmptk="Adobe XMP Core 5.6-c140 79.160451, 2017/05/06-01:08:21        ">
   <rdf:RDF xmlns:rdf="http://www.w3.org/1999/02/22-rdf-syntax-ns#">
      <rdf:Description rdf:about=""/>
   </rdf:RDF>
</x:xmpmeta>
                                                                                                    
                                                                                                    
                                                                                                    
                                                                                                    
                                                                                                    
                                                                                                    
                                                                                                    
                                                                                                    
                                                                                                    
                                                                                                    
                                                                                                    
                                                                                                    
                                                                                                    
                                                                                                    
                                                                                                    
                                                                                                    
                                                                                                    
                                                                                                    
                                                                                                    
                                                                                                    
                           
<?xpacket end="w"?></metadata>
<defs>
    <style>
      .cls-1 {
        fill: #e42c35;
        fill-rule: evenodd;
      }
    </style>
  </defs>
  <path id="Forma_1" data-name="Forma 1" class="cls-1" d="M1140.41,4059.56a0.116,0.116,0,0,1-.13.05h-0.08a0.227,0.227,0,0,1-.13-0.18v-10.5a0.18,0.18,0,0,1,.11-0.18,0.375,0.375,0,0,1,.21,0l7,4a0.15,0.15,0,0,1,.1.15,0.147,0.147,0,0,1-.07.16Zm23.53,2.89a0.22,0.22,0,0,1,.06.21,0.261,0.261,0,0,1-.21.14h-22.9a0.745,0.745,0,0,1-.4-0.14,0.15,0.15,0,0,1-.1-0.15,0.162,0.162,0,0,1,.08-0.16l8.92-8.29a0.183,0.183,0,0,1,.24-0.03l2.36,1.35a1,1,0,0,0,1.03,0l2.69-1.58a0.143,0.143,0,0,1,.23.02Zm0.82-13.86a0.189,0.189,0,0,1,.11.18v11.11a0.2,0.2,0,0,1-.14.18,0.078,0.078,0,0,1-.07.03,0.225,0.225,0,0,1-.16-0.08l-6.66-7.19a0.137,0.137,0,0,1-.05-0.15,0.175,0.175,0,0,1,.07-0.16l6.69-3.92A0.163,0.163,0,0,1,1164.76,4048.59Zm-0.74-5.95a0.821,0.821,0,0,1,.61.24,0.785,0.785,0,0,1,.24.58v2.52a0.169,0.169,0,0,1-.19.19,0.686,0.686,0,0,0-.29.13l-11.79,6.92a0.133,0.133,0,0,1-.1.03,0.144,0.144,0,0,1-.11-0.03l-12.16-6.92a0.274,0.274,0,0,1-.16-0.21v-2.63a0.819,0.819,0,0,1,.82-0.82h23.13Z" transform="translate(-1140.06 -4042.66)"/>
</svg>
