<svg xmlns="http://www.w3.org/2000/svg" width="20.125" height="20.13" viewBox="0 0 20.125 20.13">
  <metadata><?xpacket begin="﻿" id="W5M0MpCehiHzreSzNTczkc9d"?>
<x:xmpmeta xmlns:x="adobe:ns:meta/" x:xmptk="Adobe XMP Core 5.6-c140 79.160451, 2017/05/06-01:08:21        ">
   <rdf:RDF xmlns:rdf="http://www.w3.org/1999/02/22-rdf-syntax-ns#">
      <rdf:Description rdf:about=""/>
   </rdf:RDF>
</x:xmpmeta>
                                                                                                    
                                                                                                    
                                                                                                    
                                                                                                    
                                                                                                    
                                                                                                    
                                                                                                    
                                                                                                    
                                                                                                    
                                                                                                    
                                                                                                    
                                                                                                    
                                                                                                    
                                                                                                    
                                                                                                    
                                                                                                    
                                                                                                    
                                                                                                    
                                                                                                    
                                                                                                    
                           
<?xpacket end="w"?></metadata>
<defs>
    <style>
      .cls-1 {
        fill: #e42c35;
        fill-rule: evenodd;
      }
    </style>
  </defs>
  <path id="Kształt_11" data-name="Kształt 11" class="cls-1" d="M367.066,4130.61a10.073,10.073,0,0,0-4.042,19.3,8.763,8.763,0,0,1,.174-2.31c0.194-.82,1.3-5.49,1.3-5.49a3.9,3.9,0,0,1-.322-1.59c0-1.5.866-2.61,1.943-2.61a1.349,1.349,0,0,1,1.359,1.51,21.528,21.528,0,0,1-.889,3.57,1.558,1.558,0,0,0,1.589,1.94c1.909,0,3.194-2.45,3.194-5.35,0-2.21-1.487-3.86-4.191-3.86a4.769,4.769,0,0,0-4.959,4.82,2.918,2.918,0,0,0,.663,1.98,0.485,0.485,0,0,1,.145.56c-0.048.18-.159,0.63-0.2,0.81a0.346,0.346,0,0,1-.5.25c-1.407-.57-2.063-2.12-2.063-3.85,0-2.86,2.413-6.29,7.2-6.29,3.846,0,6.377,2.78,6.377,5.77,0,3.95-2.2,6.9-5.436,6.9a2.876,2.876,0,0,1-2.459-1.25s-0.586,2.32-.71,2.77a8.589,8.589,0,0,1-1.013,2.16,10.323,10.323,0,0,0,2.854.41,10.075,10.075,0,0,0,0-20.15" transform="translate(-357 -4130.62)"/>
</svg>
