<svg xmlns="http://www.w3.org/2000/svg" width="40.157" height="46.09" viewBox="0 0 40.157 46.09">
  <metadata><?xpacket begin="﻿" id="W5M0MpCehiHzreSzNTczkc9d"?>
<x:xmpmeta xmlns:x="adobe:ns:meta/" x:xmptk="Adobe XMP Core 5.6-c140 79.160451, 2017/05/06-01:08:21        ">
   <rdf:RDF xmlns:rdf="http://www.w3.org/1999/02/22-rdf-syntax-ns#">
      <rdf:Description rdf:about=""/>
   </rdf:RDF>
</x:xmpmeta>
                                                                                                    
                                                                                                    
                                                                                                    
                                                                                                    
                                                                                                    
                                                                                                    
                                                                                                    
                                                                                                    
                                                                                                    
                                                                                                    
                                                                                                    
                                                                                                    
                                                                                                    
                                                                                                    
                                                                                                    
                                                                                                    
                                                                                                    
                                                                                                    
                                                                                                    
                                                                                                    
                           
<?xpacket end="w"?></metadata>
<defs>
    <style>
      .cls-1 {
        fill: #e42c35;
        fill-rule: evenodd;
      }
    </style>
  </defs>
  <path id="Forma_1" data-name="Forma 1" class="cls-1" d="M496.08,2260.77l1.825-1.83,0.544,0.54a1.286,1.286,0,0,0,1.817-1.82l-2.732-2.73a1.287,1.287,0,0,0-1.82,1.82l0.6,0.6-1.8,1.8a20.011,20.011,0,0,0-11.64-5.24v-1.67h1.3a2.19,2.19,0,0,0,0-4.38h-6.558a2.19,2.19,0,0,0,0,4.38h1.44v1.66h-0.08a20.058,20.058,0,0,0-12.184,5.7l-1.117,1.21A20.075,20.075,0,1,0,496.08,2260.77Zm-15.2,29.75a16.675,16.675,0,1,1,16.676-16.67A16.672,16.672,0,0,1,480.875,2290.52Zm1.32-18.17v-10.51l-1.214-1.94-1.379,1.94v10.51A2.563,2.563,0,1,0,482.2,2272.35Z" transform="translate(-460.812 -2247.88)"/>
</svg>
