<svg xmlns="http://www.w3.org/2000/svg" width="47.719" height="40.5" viewBox="0 0 47.719 40.5">
  <metadata><?xpacket begin="﻿" id="W5M0MpCehiHzreSzNTczkc9d"?>
<x:xmpmeta xmlns:x="adobe:ns:meta/" x:xmptk="Adobe XMP Core 5.6-c140 79.160451, 2017/05/06-01:08:21        ">
   <rdf:RDF xmlns:rdf="http://www.w3.org/1999/02/22-rdf-syntax-ns#">
      <rdf:Description rdf:about=""/>
   </rdf:RDF>
</x:xmpmeta>
                                                                                                    
                                                                                                    
                                                                                                    
                                                                                                    
                                                                                                    
                                                                                                    
                                                                                                    
                                                                                                    
                                                                                                    
                                                                                                    
                                                                                                    
                                                                                                    
                                                                                                    
                                                                                                    
                                                                                                    
                                                                                                    
                                                                                                    
                                                                                                    
                                                                                                    
                                                                                                    
                           
<?xpacket end="w"?></metadata>
<defs>
    <style>
      .cls-1 {
        fill: #e42c35;
        fill-rule: evenodd;
      }
    </style>
  </defs>
  <path id="Forma_1_kopiuj" data-name="Forma 1 kopiuj" class="cls-1" d="M82.834,2483.11l-19.452-19.45a4.508,4.508,0,0,0-6.354,0l-0.771.77-0.441-.44a4.507,4.507,0,0,0-6.354,0l-2.36,2.36H41.635a1.538,1.538,0,0,0-1.535,1.54v5.46l-2.36,2.36a4.493,4.493,0,0,0,0,6.35l19.452,19.45a4.483,4.483,0,0,0,6.354,0l0.772-.77,0.44,0.44a4.484,4.484,0,0,0,6.354,0l11.721-11.72A4.493,4.493,0,0,0,82.834,2483.11ZM60.37,2499.76a1.413,1.413,0,0,1-1.007-.42l-19.452-19.45a1.422,1.422,0,0,1,0-2.01l2.809-2.81a1.5,1.5,0,0,0,.45-1.08v-4.57h4.568a1.526,1.526,0,0,0,1.085-.45l2.809-2.81a1.441,1.441,0,0,1,2.013,0l1.525,1.53h0L73.1,2485.61a1.424,1.424,0,0,1,.417,1.01,1.384,1.384,0,0,1-.417,1l-11.721,11.72A1.412,1.412,0,0,1,60.37,2499.76Zm20.294-12.47-11.721,11.72a1.416,1.416,0,0,1-2.013,0l-0.441-.44,8.779-8.78a4.488,4.488,0,0,0,0-6.35L58.427,2466.6l0.771-.77a1.434,1.434,0,0,1,2.013,0l19.452,19.45A1.422,1.422,0,0,1,80.664,2487.29ZM51.746,2470.1l-7.917,7.92a1.535,1.535,0,1,0,2.17,2.17l7.917-7.92A1.535,1.535,0,0,0,51.746,2470.1Z" transform="translate(-36.438 -2462.34)"/>
</svg>
