<svg xmlns="http://www.w3.org/2000/svg" width="27.031" height="27.03" viewBox="0 0 27.031 27.03">
  <metadata><?xpacket begin="﻿" id="W5M0MpCehiHzreSzNTczkc9d"?>
<x:xmpmeta xmlns:x="adobe:ns:meta/" x:xmptk="Adobe XMP Core 5.6-c140 79.160451, 2017/05/06-01:08:21        ">
   <rdf:RDF xmlns:rdf="http://www.w3.org/1999/02/22-rdf-syntax-ns#">
      <rdf:Description rdf:about=""/>
   </rdf:RDF>
</x:xmpmeta>
                                                                                                    
                                                                                                    
                                                                                                    
                                                                                                    
                                                                                                    
                                                                                                    
                                                                                                    
                                                                                                    
                                                                                                    
                                                                                                    
                                                                                                    
                                                                                                    
                                                                                                    
                                                                                                    
                                                                                                    
                                                                                                    
                                                                                                    
                                                                                                    
                                                                                                    
                                                                                                    
                           
<?xpacket end="w"?></metadata>
<defs>
    <style>
      .cls-1 {
        fill: #e42c35;
        fill-rule: evenodd;
      }
    </style>
  </defs>
  <path id="Forma_1" data-name="Forma 1" class="cls-1" d="M852.8,4062.34a1.319,1.319,0,0,1-.4,1.15l-3.807,3.78a2.255,2.255,0,0,1-.672.49,2.968,2.968,0,0,1-.816.26,1.567,1.567,0,0,0-.171.01c-0.1.01-.22,0.01-0.372,0.01a12.373,12.373,0,0,1-4.737-1.1,25.532,25.532,0,0,1-3.992-2.19,29.56,29.56,0,0,1-4.751-4.01,31.772,31.772,0,0,1-3.319-3.78,27.539,27.539,0,0,1-2.118-3.34,17.871,17.871,0,0,1-1.2-2.78,14.762,14.762,0,0,1-.544-2.15,7.035,7.035,0,0,1-.114-1.42c0.019-.34.028-0.53,0.028-0.57a2.8,2.8,0,0,1,.258-0.82,2.177,2.177,0,0,1,.486-0.67l3.806-3.81a1.25,1.25,0,0,1,.916-0.4,1.081,1.081,0,0,1,.658.21,2.107,2.107,0,0,1,.487.53l3.062,5.82a1.394,1.394,0,0,1,.143,1,1.772,1.772,0,0,1-.486.92l-1.4,1.4a0.488,0.488,0,0,0-.1.19,0.709,0.709,0,0,0-.043.21,5.268,5.268,0,0,0,.516,1.38,12.475,12.475,0,0,0,1.058,1.68,19.4,19.4,0,0,0,2.032,2.27,19.142,19.142,0,0,0,2.29,2.05,13.083,13.083,0,0,0,1.674,1.08,4.963,4.963,0,0,0,1.03.41l0.358,0.07a0.6,0.6,0,0,0,.186-0.04,0.469,0.469,0,0,0,.186-0.1l1.631-1.66a1.734,1.734,0,0,1,1.2-.46,1.543,1.543,0,0,1,.773.17h0.029l5.523,3.27A1.437,1.437,0,0,1,852.8,4062.34Z" transform="translate(-825.781 -4041)"/>
</svg>
