<svg xmlns="http://www.w3.org/2000/svg" width="20.187" height="16.4" viewBox="0 0 20.187 16.4">
  <metadata><?xpacket begin="﻿" id="W5M0MpCehiHzreSzNTczkc9d"?>
<x:xmpmeta xmlns:x="adobe:ns:meta/" x:xmptk="Adobe XMP Core 5.6-c140 79.160451, 2017/05/06-01:08:21        ">
   <rdf:RDF xmlns:rdf="http://www.w3.org/1999/02/22-rdf-syntax-ns#">
      <rdf:Description rdf:about=""/>
   </rdf:RDF>
</x:xmpmeta>
                                                                                                    
                                                                                                    
                                                                                                    
                                                                                                    
                                                                                                    
                                                                                                    
                                                                                                    
                                                                                                    
                                                                                                    
                                                                                                    
                                                                                                    
                                                                                                    
                                                                                                    
                                                                                                    
                                                                                                    
                                                                                                    
                                                                                                    
                                                                                                    
                                                                                                    
                                                                                                    
                           
<?xpacket end="w"?></metadata>
<defs>
    <style>
      .cls-1 {
        fill: #fff;
        fill-rule: evenodd;
      }
    </style>
  </defs>
  <path id="Kształt_10" data-name="Kształt 10" class="cls-1" d="M336.882,4135.61a8.25,8.25,0,0,1-2.378.65,4.128,4.128,0,0,0,1.821-2.29,8.029,8.029,0,0,1-2.63,1,4.147,4.147,0,0,0-7.055,3.78,11.733,11.733,0,0,1-8.534-4.33,4.177,4.177,0,0,0-.561,2.09,4.134,4.134,0,0,0,1.843,3.44,4.108,4.108,0,0,1-1.877-.51v0.05a4.147,4.147,0,0,0,3.323,4.06,3.936,3.936,0,0,1-1.092.14,3.979,3.979,0,0,1-.778-0.07,4.162,4.162,0,0,0,3.867,2.88,8.31,8.31,0,0,1-5.142,1.77,8.052,8.052,0,0,1-.988-0.06,11.775,11.775,0,0,0,18.127-9.92c0-.18,0-0.36-0.011-0.54a8.306,8.306,0,0,0,2.065-2.14" transform="translate(-316.688 -4133.66)"/>
</svg>
